name Walk2.mot
datacolumns 19
datarows 30
range 1.36000000 1.50500000
endheader

                time	   L_ground_force_vx	   L_ground_force_vy	   L_ground_force_vz	   L_ground_force_px	   L_ground_force_py	   L_ground_force_pz	   R_ground_force_vx	   R_ground_force_vy	   R_ground_force_vz	   R_ground_force_px	   R_ground_force_py	   R_ground_force_pz	   L_ground_torque_x	   L_ground_torque_y	   L_ground_torque_z	   R_ground_torque_x	   R_ground_torque_y	   R_ground_torque_z	
          1.36000000	          0.00000000	         -0.00000004	          0.00000001	         -0.00000000	          0.00000000	         -0.00000000	        -11.10211032	        123.13468905	         10.32770843	         -0.05943782	          0.00000000	          0.06555585	          0.00000000	          0.00000000	          0.00000000	          0.00000000	          0.14442338	          0.00000000	
          1.36500000	          0.00000000	         -0.00000005	          0.00000001	         -0.00000000	          0.00000000	         -0.00000000	        -17.50236338	        171.96658283	         13.18995444	         -0.10345058	          0.00000000	          0.12516343	          0.00000000	          0.00000000	          0.00000000	          0.00000000	          0.13415494	          0.00000000	
          1.37000000	          0.00000000	         -0.00000006	          0.00000001	         -0.00000000	          0.00000000	         -0.00000000	        -24.64484323	        225.10863235	         16.08838494	         -0.14285000	          0.00000000	          0.17851086	          0.00000000	          0.00000000	          0.00000000	          0.00000000	          0.14628248	          0.00000000	
          1.37500000	          0.00000001	         -0.00000008	          0.00000001	         -0.00000000	          0.00000000	         -0.00000000	        -32.45664836	        279.61318538	         18.65949583	         -0.17596439	          0.00000000	          0.22369084	          0.00000000	          0.00000000	          0.00000000	          0.00000000	          0.17797162	          0.00000000	
          1.38000000	          0.00000001	         -0.00000009	          0.00000001	         -0.00000000	          0.00000000	         -0.00000000	        -41.05349161	        332.63499673	         20.42690954	         -0.20214260	          0.00000000	          0.26012159	          0.00000000	          0.00000000	          0.00000000	          0.00000000	          0.22535992	          0.00000000	
          1.38500000	          0.00000001	         -0.00000009	          0.00000001	         -0.00000000	          0.00000000	         -0.00000000	        -50.65693196	        382.38155347	         20.94315798	         -0.22148091	          0.00000000	          0.28813572	          0.00000000	          0.00000000	          0.00000000	          0.00000000	          0.28705331	          0.00000000	
          1.39000000	          0.00000001	         -0.00000009	          0.00000001	         -0.00000000	          0.00000000	         -0.00000000	        -61.41223775	        428.02516342	         19.93132604	         -0.23455291	          0.00000000	          0.30862158	          0.00000000	          0.00000000	          0.00000000	          0.00000000	          0.36429327	          0.00000000	
          1.39500000	          0.00000002	         -0.00000008	          0.00000000	         -0.00000000	          0.00000000	         -0.00000000	        -73.27321382	        469.42148873	         17.33364531	         -0.24220168	          0.00000000	          0.32274603	          0.00000000	          0.00000000	          0.00000000	          0.00000000	          0.45979745	          0.00000000	
          1.40000000	          0.00000002	         -0.00000004	         -0.00000000	          0.00000000	          0.00000000	          0.00000000	        -85.97653070	        507.09450630	         13.28349781	         -0.24539191	          0.00000000	          0.33175756	          0.00000000	          0.00000000	          0.00000000	          0.00000000	          0.57488917	          0.00000000	
          1.40500000	          0.00000002	          0.00000001	         -0.00000001	          0.00000000	          0.00000000	          0.00000000	        -99.12765436	        542.09765705	          8.05848068	         -0.24511335	          0.00000000	          0.33685235	          0.00000000	          0.00000000	          0.00000000	          0.00000000	          0.70714839	          0.00000000	
          1.41000000	          0.00000002	          0.00000010	         -0.00000002	          0.00000000	          0.00000000	          0.00000000	       -112.33651593	        575.59892190	          2.05352019	         -0.24231892	          0.00000000	          0.33909016	          0.00000000	          0.00000000	          0.00000000	          0.00000000	          0.84923198	          0.00000000	
          1.41500000	          0.00000001	          0.00000022	         -0.00000004	          0.00000000	          0.00000000	          0.00000000	       -125.27667719	        608.44457107	         -4.24327626	         -0.23787955	          0.00000000	          0.33935359	          0.00000000	          0.00000000	          0.00000000	          0.00000000	          0.98809638	          0.00000000	
          1.42000000	          0.00000000	          0.00000038	         -0.00000006	          0.00000000	          0.00000000	          0.00000000	       -137.62673969	        641.01159653	        -10.31544297	         -0.23254296	          0.00000000	          0.33834357	          0.00000000	          0.00000000	          0.00000000	          0.00000000	          1.10769163	          0.00000000	
          1.42500000	         -0.00000001	          0.00000059	         -0.00000008	          0.00000000	          0.00000000	          0.00000000	       -148.99829858	        673.39698048	        -15.72615153	         -0.22690590	          0.00000000	          0.33659450	          0.00000000	         -0.00000000	          0.00000000	          0.00000000	          1.19453642	          0.00000000	
          1.43000000	         -0.00000003	          0.00000084	         -0.00000011	          0.00000000	          0.00000000	          0.00000000	       -158.95977142	        705.61323217	        -20.18146055	         -0.22141679	          0.00000000	          0.33449915	          0.00000000	         -0.00000000	          0.00000000	          0.00000000	          1.24113150	          0.00000000	
          1.43500000	         -0.00000006	          0.00000113	         -0.00000014	          0.00000000	          0.00000000	          0.00000000	       -167.13149924	        737.55489671	        -23.51181830	         -0.21639340	          0.00000000	          0.33233279	          0.00000000	         -0.00000000	          0.00000000	          0.00000000	          1.24603774	          0.00000000	
          1.44000000	         -0.00000010	          0.00000144	         -0.00000017	          0.00000000	          0.00000000	          0.00000000	       -173.25287435	        768.89742843	        -25.64870844	         -0.21203499	          0.00000000	          0.33027357	          0.00000000	         -0.00000000	          0.00000000	          0.00000000	          1.21241851	          0.00000000	
          1.44500000	         -0.00000015	          0.00000174	         -0.00000020	          0.00000000	          0.00000000	          0.00000000	       -177.20016511	        799.10636671	        -26.62199957	         -0.20843630	          0.00000000	          0.32842526	          0.00000000	         -0.00000000	          0.00000000	          0.00000000	          1.14557425	          0.00000000	
          1.45000000	         -0.00000020	          0.00000200	         -0.00000021	          0.00000000	          0.00000000	          0.00000000	       -178.98347799	        827.50820375	        -26.55203215	         -0.20560833	          0.00000000	          0.32683749	          0.00000000	         -0.00000000	          0.00000000	          0.00000000	          1.05146798	          0.00000000	
          1.45500000	         -0.00000027	          0.00000216	         -0.00000021	          0.00000000	          0.00000000	          0.00000000	       -178.72782843	        853.34536209	        -25.62885757	         -0.20350144	          0.00000000	          0.32552234	          0.00000000	         -0.00000000	          0.00000000	          0.00000000	          0.93643713	          0.00000000	
          1.46000000	         -0.00000033	          0.00000213	         -0.00000018	          0.00000000	          0.00000000	          0.00000000	       -176.63908488	        875.84564276	        -24.08633195	         -0.20202865	          0.00000000	          0.32446995	          0.00000000	         -0.00000000	          0.00000000	          0.00000000	          0.80735098	          0.00000000	
          1.46500000	         -0.00000039	          0.00000184	         -0.00000010	          0.00000000	          0.00000000	          0.00000000	       -172.96762683	        894.32540921	        -22.17514067	         -0.20108581	          0.00000000	          0.32365802	          0.00000000	         -0.00000000	          0.00000000	          0.00000000	          0.67189135	          0.00000000	
          1.47000000	         -0.00000044	          0.00000114	          0.00000002	         -0.00000000	          0.00000000	         -0.00000000	       -167.97905209	        908.27948599	        -20.13474289	         -0.20056554	          0.00000000	          0.32305883	          0.00000000	         -0.00000000	          0.00000000	          0.00000000	          0.53822385	          0.00000000	
          1.47500000	         -0.00000045	         -0.00000008	          0.00000021	         -0.00000000	          0.00000000	         -0.00000000	       -161.93262812	        917.42340449	        -18.16727752	         -0.20036694	          0.00000000	          0.32264188	          0.00000000	         -0.00000000	          0.00000000	          0.00000000	          0.41378758	          0.00000000	
          1.48000000	         -0.00000042	         -0.00000197	          0.00000048	         -0.00000001	          0.00000000	         -0.00000000	       -155.06554236	        921.68883400	        -16.42234760	         -0.20040071	          0.00000000	          0.32237472	          0.00000000	         -0.00000000	          0.00000000	          0.00000000	          0.30457476	          0.00000000	
          1.48500000	         -0.00000032	         -0.00000468	          0.00000085	         -0.00000001	          0.00000000	         -0.00000001	       -147.58402346	        921.19022766	        -14.99708104	         -0.20059049	          0.00000000	          0.32222666	          0.00000000	         -0.00000000	          0.00000000	          0.00000000	          0.21486731	          0.00000000	
          1.49000000	         -0.00000013	         -0.00000832	          0.00000131	         -0.00000001	          0.00000000	         -0.00000001	       -139.66182834	        916.18032645	        -13.94539906	         -0.20087340	          0.00000000	          0.32217100	          0.00000000	         -0.00000000	          0.00000000	          0.00000000	          0.14745399	          0.00000000	
          1.49500000	          0.00000019	         -0.00001299	          0.00000187	         -0.00000002	          0.00000000	         -0.00000001	       -131.44474864	        907.01036292	        -13.28891384	         -0.20119815	          0.00000000	          0.32218702	          0.00000000	         -0.00000000	          0.00000000	          0.00000000	          0.10362767	          0.00000000	
          1.50000000	          0.00000066	         -0.00001865	          0.00000252	         -0.00000003	          0.00000000	         -0.00000001	       -123.05985133	        894.09860965	        -13.02352976	         -0.20152342	          0.00000000	          0.32225974	          0.00000000	          0.00000000	          0.00000000	          0.00000000	          0.08265160	          0.00000000	
          1.50500000	          0.00000131	         -0.00002519	          0.00000321	         -0.00000003	          0.00000000	         -0.00000002	       -114.62301406	        877.91038334	        -13.12104807	         -0.20181675	          0.00000000	          0.32237660	          0.00000000	          0.00000001	          0.00000000	          0.00000000	          0.08276441	          0.00000000	
